<svg id="Layer_1" data-name="Layer 1" xmlns="http://www.w3.org/2000/svg" viewBox="0 0 110 110"><defs><style>.cls-1{fill:#101010;}.cls-2{font-size:20.53px;font-family:Genath;font-style:italic;}.cls-2,.cls-4{fill:#fff;}.cls-3{letter-spacing:1px;}.cls-5{fill:none;stroke:#fff;stroke-miterlimit:10;}</style></defs><title>Untitled-1</title><circle class="cls-1" cx="55" cy="55" r="55"/><text class="cls-2" transform="translate(19.03 60.96)"><tspan class="cls-3">misc∙p</tspan><tspan x="50.22" y="0">r</tspan><tspan class="cls-3" x="58.46" y="0">oj</tspan></text><path class="cls-4" d="M54.06,10.75a1.71,1.71,0,0,1-.21-0.91,1,1,0,0,1,1.59-.64,1,1,0,0,1,.33.64l0.65,0.09H55.77a2.13,2.13,0,0,1-.22.83,9,9,0,0,1-.47.9l-0.1.19a1.92,1.92,0,0,1-.17.31l-0.19-.34-0.09-.16A9,9,0,0,1,54.06,10.75Z"/><path class="cls-4" d="M53.85,9.83a1.71,1.71,0,0,0,.21.91,9,9,0,0,0,.47.9l0.09,0.16,0.19,0.34A1.92,1.92,0,0,0,55,11.83l0.1-.19a9,9,0,0,0,.47-0.9,2.13,2.13,0,0,0,.22-0.83h0.65l-0.65-.09a1,1,0,0,0-.33-0.64A1,1,0,0,0,53.85,9.83Zm1,3.88a1.81,1.81,0,0,1-1.34-1.22l-0.12-.21a9.42,9.42,0,0,1-.52-1,3.49,3.49,0,0,1-.33-1.34s0-.17,0-0.19a2.16,2.16,0,0,1,.76-1.52,2.26,2.26,0,0,1,3,0,2.25,2.25,0,0,1,.78,1.52V9.92a3.49,3.49,0,0,1-.33,1.34,9.42,9.42,0,0,1-.52,1l-0.09.16A1.9,1.9,0,0,1,54.82,13.71Z"/><path class="cls-4" d="M66.3,15c0.43,0.57.91,1.36,1.62,4.22-2.88-.69-3.67-1.17-4.24-1.6a5.19,5.19,0,0,1-1.29-1.41A2.35,2.35,0,0,1,62,14.93a1.68,1.68,0,0,1,.48-1.17,1.82,1.82,0,0,1,1.17-.5,2.21,2.21,0,0,1,1.22.4A4.73,4.73,0,0,1,66.3,15Z"/><path class="cls-4" d="M47.22,16.16a5.19,5.19,0,0,1-1.29,1.41c-0.57.43-1.36,0.91-4.24,1.6,0.71-2.86,1.19-3.65,1.62-4.22a5,5,0,0,1,1.41-1.29,2.21,2.21,0,0,1,1.22-.4,1.82,1.82,0,0,1,1.17.5,1.68,1.68,0,0,1,.48,1.17L48.27,15H47.61A2.37,2.37,0,0,1,47.22,16.16Z"/><path class="cls-4" d="M45.93,17.57a5.19,5.19,0,0,0,1.29-1.41,2.37,2.37,0,0,0,.4-1.17h0.65l-0.67-.05a1.68,1.68,0,0,0-.48-1.17,1.82,1.82,0,0,0-1.17-.5,2.21,2.21,0,0,0-1.22.4A5,5,0,0,0,43.31,15c-0.43.57-.91,1.36-1.62,4.22C44.56,18.48,45.36,18,45.93,17.57Zm0.81,1.05c-0.78.59-1.79,1.19-5.79,2.1a0.65,0.65,0,0,1-.62-0.19,0.64,0.64,0,0,1-.17-0.6c0.9-4,1.5-5,2.1-5.79A6,6,0,0,1,44,12.52a3.62,3.62,0,0,1,2-.59,3.07,3.07,0,0,1,2.95,2.95V15a3.5,3.5,0,0,1-.59,1.84A6.31,6.31,0,0,1,46.74,18.62Z"/><path class="cls-4" d="M62.38,16.16a5.19,5.19,0,0,0,1.29,1.41c0.57,0.43,1.36.91,4.24,1.6-0.71-2.86-1.19-3.65-1.62-4.22a4.73,4.73,0,0,0-1.41-1.29,2.21,2.21,0,0,0-1.22-.4,1.82,1.82,0,0,0-1.17.5A1.68,1.68,0,0,0,62,14.93,2.35,2.35,0,0,0,62.38,16.16Zm6.27,4.57c-4-.91-5-1.52-5.79-2.1a6.31,6.31,0,0,1-1.62-1.79A3.5,3.5,0,0,1,60.66,15a3.21,3.21,0,0,1,.9-2.17,3.14,3.14,0,0,1,2.05-.88,3.62,3.62,0,0,1,2,.59,6,6,0,0,1,1.78,1.62c0.6,0.78,1.21,1.79,2.1,5.79a0.34,0.34,0,0,1,0,.14,0.67,0.67,0,0,1-.19.47A0.65,0.65,0,0,1,68.66,20.72Z"/><path class="cls-4" d="M46.8,27.48a1.71,1.71,0,0,1-1,.52,1.32,1.32,0,0,1-.88-0.21,1.56,1.56,0,0,1-.43-1,1.63,1.63,0,0,1,.31-0.93,1.66,1.66,0,0,1,1.05-.65l0.28-.07a10,10,0,0,0,1.19-.41A9.81,9.81,0,0,0,47.2,26l0,0.29A1.75,1.75,0,0,1,46.8,27.48Z"/><path class="cls-4" d="M62.8,27.48a1.75,1.75,0,0,1-.38-1.17l0-.29a9.81,9.81,0,0,0-.12-1.26,10,10,0,0,0,1.19.41l0.28,0.07a1.66,1.66,0,0,1,1.05.65,1.63,1.63,0,0,1,.31.93l0,0.16a1.42,1.42,0,0,1-.41.81,1.32,1.32,0,0,1-.88.21A1.71,1.71,0,0,1,62.8,27.48Z"/><path class="cls-4" d="M61.82,28.36a3,3,0,0,1-.72-2l0-.31a5.44,5.44,0,0,0-.67-2.64,0.65,0.65,0,0,1,.17-0.83,0.67,0.67,0,0,1,.84,0,5.33,5.33,0,0,0,2.4,1.26L64.13,24a3.15,3.15,0,0,1,1.78,1.17,3.11,3.11,0,0,1,.53,1.69,2.36,2.36,0,0,1,0,.33,2.62,2.62,0,0,1-.9,1.67,2.68,2.68,0,0,1-1.84.5A3,3,0,0,1,61.82,28.36Zm0.6-2.05a1.75,1.75,0,0,0,.38,1.17,1.71,1.71,0,0,0,1,.52,1.32,1.32,0,0,0,.88-0.21A1.42,1.42,0,0,0,65.09,27l0-.16a1.63,1.63,0,0,0-.31-0.93,1.66,1.66,0,0,0-1.05-.65l-0.28-.07a10,10,0,0,1-1.19-.41A9.81,9.81,0,0,1,62.4,26Z"/><path class="cls-4" d="M48.51,26.38a3,3,0,0,1-.72,2,3,3,0,0,1-1.84,1,2.68,2.68,0,0,1-1.84-.5,2.62,2.62,0,0,1-.9-1.67,2.89,2.89,0,0,1,.5-2A3.15,3.15,0,0,1,45.48,24l0.31-.09a5.33,5.33,0,0,0,2.4-1.26,0.67,0.67,0,0,1,1.1.52,0.58,0.58,0,0,1-.09.29,5.44,5.44,0,0,0-.67,2.64Zm-4,.45a1.56,1.56,0,0,0,.43,1,1.32,1.32,0,0,0,.88.21,1.71,1.71,0,0,0,1-.52,1.75,1.75,0,0,0,.38-1.17l0-.29a9.81,9.81,0,0,1,.12-1.26,10,10,0,0,1-1.19.41l-0.28.07a1.66,1.66,0,0,0-1.05.65A1.63,1.63,0,0,0,44.5,26.83Z"/><circle class="cls-5" cx="55" cy="55" r="51.33"/><path class="cls-4" d="M55.74,99.26a1.71,1.71,0,0,1,.21.91,1,1,0,0,1-1.59.64,1,1,0,0,1-.33-0.64l-0.65-.09H54a2.13,2.13,0,0,1,.22-0.83,9,9,0,0,1,.47-0.9l0.1-.19A1.92,1.92,0,0,1,55,97.87l0.19,0.34,0.09,0.16A9,9,0,0,1,55.74,99.26Z"/><path class="cls-4" d="M55.95,100.18a1.71,1.71,0,0,0-.21-0.91,9,9,0,0,0-.47-0.9l-0.09-.16L55,97.87a1.92,1.92,0,0,0-.17.31l-0.1.19a9,9,0,0,0-.47.9,2.13,2.13,0,0,0-.22.83H53.38L54,100.18a1,1,0,0,0,.33.64A1,1,0,0,0,55.95,100.18Zm1-1.43a3.49,3.49,0,0,1,.33,1.34s0,0.17,0,.19a2.16,2.16,0,0,1-.76,1.52,2.26,2.26,0,0,1-3,0,2.25,2.25,0,0,1-.78-1.52v-0.19A3.49,3.49,0,0,1,53,98.75a9.42,9.42,0,0,1,.52-1l0.09-.16A1.9,1.9,0,0,1,55,96.3a1.81,1.81,0,0,1,1.34,1.22l0.12,0.21A9.42,9.42,0,0,1,57,98.75Z"/><path class="cls-4" d="M41.88,90.84c2.88,0.69,3.67,1.17,4.24,1.6a5.19,5.19,0,0,1,1.29,1.41,2.35,2.35,0,0,1,.38,1.22,1.68,1.68,0,0,1-.48,1.17,1.82,1.82,0,0,1-1.17.5,2.21,2.21,0,0,1-1.22-.4,4.73,4.73,0,0,1-1.41-1.29C43.07,94.49,42.59,93.7,41.88,90.84Z"/><path class="cls-4" d="M62.58,93.85a5.19,5.19,0,0,1,1.29-1.41c0.57-.43,1.36-0.91,4.24-1.6-0.71,2.86-1.19,3.65-1.62,4.22a5,5,0,0,1-1.41,1.29,2.21,2.21,0,0,1-1.22.4,1.82,1.82,0,0,1-1.17-.5,1.68,1.68,0,0,1-.48-1.17L61.53,95h0.65A2.37,2.37,0,0,1,62.58,93.85Z"/><path class="cls-4" d="M66.5,95.06c0.43-.57.91-1.36,1.62-4.22-2.88.69-3.67,1.17-4.24,1.6a5.19,5.19,0,0,0-1.29,1.41,2.37,2.37,0,0,0-.4,1.17H61.53l0.67,0.05a1.68,1.68,0,0,0,.48,1.17,1.82,1.82,0,0,0,1.17.5,2.21,2.21,0,0,0,1.22-.4A5,5,0,0,0,66.5,95.06Zm2.36-5.77a0.65,0.65,0,0,1,.62.19,0.64,0.64,0,0,1,.17.6c-0.9,4-1.5,5-2.1,5.79a6,6,0,0,1-1.78,1.62,3.62,3.62,0,0,1-2,.59,3.07,3.07,0,0,1-2.95-2.95V95a3.5,3.5,0,0,1,.59-1.84,6.31,6.31,0,0,1,1.62-1.79C63.84,90.8,64.86,90.2,68.86,89.28Z"/><path class="cls-4" d="M46.12,92.44c-0.57-.43-1.36-0.91-4.24-1.6,0.71,2.86,1.19,3.65,1.62,4.22a4.73,4.73,0,0,0,1.41,1.29,2.21,2.21,0,0,0,1.22.4,1.82,1.82,0,0,0,1.17-.5,1.68,1.68,0,0,0,.48-1.17,2.35,2.35,0,0,0-.38-1.22A5.19,5.19,0,0,0,46.12,92.44Zm-5.6-3a0.65,0.65,0,0,1,.62-0.19c4,0.91,5,1.52,5.79,2.1a6.31,6.31,0,0,1,1.62,1.79A3.5,3.5,0,0,1,49.14,95a3.21,3.21,0,0,1-.9,2.17,3.14,3.14,0,0,1-2.05.88,3.62,3.62,0,0,1-2-.59,6,6,0,0,1-1.78-1.62c-0.6-.78-1.21-1.79-2.1-5.79a0.34,0.34,0,0,1,0-.14A0.67,0.67,0,0,1,40.52,89.47Z"/><path class="cls-4" d="M63,82.53A1.71,1.71,0,0,1,64,82a1.32,1.32,0,0,1,.88.21,1.56,1.56,0,0,1,.43,1,1.63,1.63,0,0,1-.31.93,1.66,1.66,0,0,1-1.05.65l-0.28.07a10,10,0,0,0-1.19.41A9.81,9.81,0,0,0,62.6,84l0-.29A1.75,1.75,0,0,1,63,82.53Z"/><path class="cls-4" d="M46,82a1.71,1.71,0,0,1,1,.52,1.75,1.75,0,0,1,.38,1.17l0,0.29a9.81,9.81,0,0,0,.12,1.26,10,10,0,0,0-1.19-.41l-0.28-.07A1.66,1.66,0,0,1,45,84.11a1.63,1.63,0,0,1-.31-0.93l0-.16a1.42,1.42,0,0,1,.41-0.81A1.32,1.32,0,0,1,46,82Z"/><path class="cls-4" d="M45.12,82.22a1.42,1.42,0,0,0-.41.81l0,0.16a1.63,1.63,0,0,0,.31.93,1.66,1.66,0,0,0,1.05.65l0.28,0.07a10,10,0,0,1,1.19.41A9.81,9.81,0,0,1,47.4,84l0-.29A1.75,1.75,0,0,0,47,82.53,1.71,1.71,0,0,0,46,82,1.32,1.32,0,0,0,45.12,82.22ZM48,81.65a3,3,0,0,1,.72,2l0,0.31a5.44,5.44,0,0,0,.67,2.64,0.65,0.65,0,0,1-.17.83,0.67,0.67,0,0,1-.84,0A5.33,5.33,0,0,0,46,86.13L45.68,86a3.15,3.15,0,0,1-1.78-1.17,3.11,3.11,0,0,1-.53-1.69,2.36,2.36,0,0,1,0-.33,2.62,2.62,0,0,1,.9-1.67,2.68,2.68,0,0,1,1.84-.5A3,3,0,0,1,48,81.65Z"/><path class="cls-4" d="M61.29,83.63a3,3,0,0,1,.72-2,3,3,0,0,1,1.84-1,2.68,2.68,0,0,1,1.84.5,2.62,2.62,0,0,1,.9,1.67,2.89,2.89,0,0,1-.5,2A3.15,3.15,0,0,1,64.32,86L64,86.13a5.33,5.33,0,0,0-2.4,1.26,0.67,0.67,0,0,1-1.1-.52,0.58,0.58,0,0,1,.09-0.29,5.44,5.44,0,0,0,.67-2.64Zm3.58-1.41A1.32,1.32,0,0,0,64,82a1.71,1.71,0,0,0-1,.52,1.75,1.75,0,0,0-.38,1.17l0,0.29a9.81,9.81,0,0,1-.12,1.26,10,10,0,0,1,1.19-.41l0.28-.07A1.66,1.66,0,0,0,65,84.11a1.63,1.63,0,0,0,.31-0.93A1.56,1.56,0,0,0,64.88,82.22Z"/></svg>